<svg xmlns="http://www.w3.org/2000/svg" xmlns:xlink="http://www.w3.org/1999/xlink" width="132" height="40" viewBox="0 0 132 40"><defs><clipPath id="b"><rect width="132" height="40"/></clipPath></defs><g id="a" clip-path="url(#b)"><g transform="translate(0.998 -0.002)"><path d="M102.366,220.631a.937.937,0,0,0-.453-.053H90.466c-.457,0-.457,0-.457-.428,0-1.05.006-2.1-.005-3.151,0-.247.066-.329.329-.328q8.872.037,17.743.053c.229,0,.3.072.3.295q-.012,1.334,0,2.667a.594.594,0,0,1-.152.417c-.686.785-1.353,1.587-2.058,2.356-.381.412-.762.818-1.112,1.254-1.435,1.8-2.995,3.5-4.492,5.253q-1.734,2.042-3.515,4.043-.617.686-1.225,1.386c-.054.062-.169.121-.128.206s.175.053.267.053q1.912.012,3.825.018l8.592.021c.381,0,.381,0,.381.37,0,1.067-.008,2.139.006,3.208,0,.257-.076.319-.331.318q-8.136-.034-16.272-.053c-.745,0-1.491-.009-2.236,0-.221,0-.31-.049-.3-.284.013-.907.008-1.814,0-2.721a.573.573,0,0,1,.165-.409c1.372-1.559,2.769-3.094,4.09-4.69,2.145-2.591,4.4-5.1,6.6-7.647.617-.717,1.231-1.433,1.888-2.152Z" transform="translate(-89.625 -207.779)" fill="#f9c067"/><path d="M232.076,214.838v14.807c0,.4,0,.4-.413.4-1.372,0-2.743-.006-4.12.006-.271,0-.348-.076-.348-.338q.01-14.9,0-29.792c0-.27.088-.337.353-.335q2.09.016,4.178,0c.287,0,.357.082.357.354q-.006,7.446-.006,14.9Z" transform="translate(-153.668 -199.584)" fill="#f9c067"/><path d="M200.7,216.426c-.674,1.89-1.488,3.726-2.247,5.584q-2.179,5.334-4.38,10.654-1.77,4.285-3.553,8.566c-.029.069-.069.136-.1.2a7.4,7.4,0,0,1-.641,1.219,6.935,6.935,0,0,1-5.264,3.385,7.95,7.95,0,0,1-5.457-1.128c-.264-.168-.473-.4-.732-.569-.152-.1-.043-.2.008-.294q.822-1.483,1.651-2.964c.245-.437.249-.439.665-.173a4.6,4.6,0,0,0,2.3.8,3.453,3.453,0,0,0,3.22-1.692,20.62,20.62,0,0,0,1.118-2.268c.066-.133,0-.239-.051-.352l-5.591-12.921c-.933-2.154-1.877-4.3-2.794-6.463-.238-.56-.428-1.143-.686-1.7-.1-.219.058-.191.181-.191h1.853c.844,0,1.687.012,2.531-.008a.437.437,0,0,1,.487.332q1.083,2.722,2.192,5.435,2.04,5.03,4.089,10.059c.088.217.053.476.26.686l.543-1.393,1.878-5.03q.669-1.786,1.346-3.572c.786-2.075,1.58-4.147,2.362-6.224a.381.381,0,0,1,.427-.284c1.393.011,2.785,0,4.178.006.322-.008.317,0,.213.291Z" transform="translate(-130.826 -207.514)" fill="#f9c067"/><path d="M314.158,221.933a8.584,8.584,0,0,0-6.173-5.693,12.453,12.453,0,0,0-2.963-.408,11.972,11.972,0,0,0-7.522,2.045,10.379,10.379,0,0,0-3.669,4.7,11.4,11.4,0,0,0-.776,4.29,11.139,11.139,0,0,0,1.641,6.206,9.83,9.83,0,0,0,4.268,3.775,13.717,13.717,0,0,0,9.831.515,11.248,11.248,0,0,0,4.757-2.853c.165-.164.186-.258.01-.431q-1.136-1.119-2.243-2.266c-.148-.152-.229-.076-.328.027a8.126,8.126,0,0,1-2.62,1.648,8.623,8.623,0,0,1-4.462.617,6.834,6.834,0,0,1-4.35-2.1,6.762,6.762,0,0,1-1.53-2.807c-.124-.429-.12-.434.328-.434h15.975c.108,0,.216,0,.323,0,.146,0,.2-.063.21-.208a16.294,16.294,0,0,0-.707-6.616Zm-3.823,3.34H298.218c-.381,0-.386,0-.317-.357a6.587,6.587,0,0,1,.813-2.225,6.125,6.125,0,0,1,4.483-2.972,7.985,7.985,0,0,1,3.687.283,5.283,5.283,0,0,1,2.526,1.79,5.852,5.852,0,0,1,1.2,3.259C310.628,225.283,310.488,225.273,310.335,225.273Z" transform="translate(-184.327 -207.372)" fill="#f9c067"/><path d="M265.268,221.933a8.584,8.584,0,0,0-6.173-5.693,12.454,12.454,0,0,0-2.962-.408,11.972,11.972,0,0,0-7.523,2.045,10.375,10.375,0,0,0-3.669,4.7,11.407,11.407,0,0,0-.777,4.29,11.14,11.14,0,0,0,1.642,6.206,9.831,9.831,0,0,0,4.268,3.775,13.717,13.717,0,0,0,9.831.515,11.25,11.25,0,0,0,4.758-2.853c.165-.164.185-.258.01-.431q-1.136-1.119-2.244-2.266c-.148-.152-.229-.076-.327.027a8.124,8.124,0,0,1-2.621,1.648,8.622,8.622,0,0,1-4.462.617,6.833,6.833,0,0,1-4.349-2.1,6.757,6.757,0,0,1-1.53-2.807c-.124-.429-.12-.434.328-.434h15.976c.107,0,.216,0,.323,0,.146,0,.2-.063.21-.208a16.287,16.287,0,0,0-.708-6.616Zm-3.823,3.34H249.328c-.381,0-.386,0-.316-.357a6.564,6.564,0,0,1,.813-2.225,6.125,6.125,0,0,1,4.483-2.972,7.985,7.985,0,0,1,3.687.283,5.281,5.281,0,0,1,2.525,1.79,5.853,5.853,0,0,1,1.2,3.259c.02.232-.12.223-.273.223Z" transform="translate(-161.566 -207.372)" fill="#f9c067"/><path d="M153.074,221.739a11.677,11.677,0,0,0-4.047-4.447,9.982,9.982,0,0,0-2.622-1.264c-.331-.1-.661-.2-.991-.295a14.289,14.289,0,0,0-1.921-.342,16.864,16.864,0,0,0-2.064,0,.586.586,0,0,0-.116-.01,11.717,11.717,0,0,0-6.746,2.865,12.207,12.207,0,0,0-2.966,3.874,10.635,10.635,0,0,0-.976,6.109A16.162,16.162,0,0,0,132,232.7a40.934,40.934,0,0,0,2.923,5.248,55.2,55.2,0,0,0,5.3,6.815q.863.975,1.753,1.93a.579.579,0,0,0,.937.013c.1-.1.192-.191.283-.291a37.4,37.4,0,0,0,2.667-3.08,5.37,5.37,0,0,0,.56-.654c.047-.048.1-.093.141-.145a54.382,54.382,0,0,0,4.191-5.8,27.107,27.107,0,0,0,3.078-6.468,11.014,11.014,0,0,0-.753-8.531ZM149,232.365a8.154,8.154,0,0,1-2.233,1.792c-.145.076-.285.165-.428.248a9.01,9.01,0,0,1-2.532.8,8.8,8.8,0,0,1-7.412-2.263,6.264,6.264,0,0,1-1.338-1.581,8.416,8.416,0,0,1,6.551-12.778c.048-.006.094-.022.143-.033a4.344,4.344,0,0,1,1.412.029,9.569,9.569,0,0,1,2.233.48,7.164,7.164,0,0,0,.883.361,10.445,10.445,0,0,1,2.184,1.534A8.214,8.214,0,0,1,149,232.365Z" transform="translate(-108.665 -207.151)" fill="#f9c067"/></g></g></svg>